<svg width="50" height="50" viewBox="0 0 50 50" fill="none" xmlns="http://www.w3.org/2000/svg">
<path fill-rule="evenodd" clip-rule="evenodd" d="M30.0935 12.2246L17.7088 19.3914C16.049 17.6923 13.7066 16.6326 11.1126 16.6326C6.08302 16.6326 2 20.6156 2 25.5214C2 30.4273 6.08302 34.4103 11.1126 34.4103C13.7594 34.4103 16.1442 33.307 17.8095 31.5467L30.3885 36.901C29.9925 37.8967 29.7751 38.9794 29.7751 40.1112C29.7751 45.017 33.8582 49 38.8877 49C43.9169 49 48 45.017 48 40.1112C48 35.2053 43.9169 31.2221 38.8877 31.2221C36.204 31.2221 33.7897 32.3562 32.1214 34.1596L19.576 28.8195C19.9946 27.7996 20.2248 26.6866 20.2248 25.5214C20.2248 24.2935 19.969 23.1234 19.5064 22.0587L31.514 15.1101C33.1707 17.3321 35.8574 18.7779 38.8877 18.7779C43.9169 18.7779 48 14.7949 48 9.88906C48 4.98294 43.9169 1 38.8877 1C33.8582 1 29.7751 4.98294 29.7751 9.88906C29.7751 10.6971 29.8859 11.48 30.0935 12.2246ZM33.9828 37.0129C33.3889 37.9051 33.0438 38.9692 33.0438 40.1112C33.0438 43.2572 35.6624 45.8113 38.8877 45.8113C42.1129 45.8113 44.7313 43.2572 44.7313 40.1112C44.7313 36.9652 42.1129 34.4108 38.8877 34.4108C36.8519 34.4108 35.0578 35.4285 34.0115 36.9702L34.0014 36.9856C33.9976 36.9912 33.9938 36.9968 33.9901 37.0023L33.9828 37.0129ZM16.9562 25.5214C16.9562 28.6675 14.3377 31.2216 11.1126 31.2216C7.88721 31.2216 5.26866 28.6675 5.26866 25.5214C5.26866 22.3754 7.88721 19.8213 11.1126 19.8213C14.3377 19.8213 16.9562 22.3754 16.9562 25.5214ZM33.6049 12.3276C34.5427 14.2552 36.5568 15.5893 38.8877 15.5893C42.1129 15.5893 44.7313 13.0351 44.7313 9.88906C44.7313 6.74286 42.1129 4.18869 38.8877 4.18869C35.6623 4.18869 33.0438 6.74286 33.0438 9.88906C33.0438 10.7096 33.222 11.4898 33.5424 12.1948C33.5655 12.2385 33.5863 12.2829 33.6049 12.3276Z" fill="#59B247"/>
</svg>
